<svg width="118" height="125" viewBox="0 0 118 125" fill="none" xmlns="http://www.w3.org/2000/svg">
<path fill-rule="evenodd" clip-rule="evenodd" d="M61.218 0C99.0727 0 118 18.7161 118 56.1482C118 61.4715 117.62 67.1751 116.859 73.2589H1.1424C1.1424 73.2589 5.03826e-10 64.1332 1.0489e-09 56.1567C4.01101e-09 12.8097 20.406 0 61.218 0ZM95.4393 53.7401H23.4479C24.9689 30.4189 37.5589 18.7583 61.218 18.7583C83.5252 18.7583 94.9323 30.4189 95.4393 53.7401Z" fill="#FA3737"/>
<path d="M95.4816 87.1163L114.409 103.34C114.409 103.34 100.889 124.971 57.627 124.971C14.3645 124.971 0.845032 103.34 0.845032 103.34L22.4763 87.1163C22.4763 87.1163 42.7555 97.9319 57.627 97.9319C72.4985 97.9319 95.4816 87.1163 95.4816 87.1163Z" fill="#D9D9D9"/>
</svg>
