<svg width="1440" height="247" viewBox="0 0 1440 247" fill="none" xmlns="http://www.w3.org/2000/svg">
<path d="M0 37.3995L11.4294 37.9876C22.8562 38.5748 45.715 39.751 68.5712 40.6322C91.4274 41.5134 114.286 42.1015 137.142 39.751C160.001 37.3995 182.857 32.1103 205.714 29.4656C228.572 26.821 251.429 26.821 274.285 26.5279C297.144 26.2339 320 25.6458 342.856 27.9963C365.715 30.3478 388.571 35.637 411.43 39.1629C434.286 42.6887 457.142 44.4521 480.001 39.4569C502.857 34.4617 525.713 22.7071 548.572 18.006C571.428 13.3048 594.284 15.6554 617.143 20.3565C639.999 25.0586 662.858 32.1103 685.714 32.4043C708.571 32.6984 731.429 26.2339 754.286 24.1764C777.142 22.1199 800.001 24.4705 822.857 22.7071C845.716 20.9446 868.572 15.0673 891.428 10.6602C914.287 6.25224 937.143 3.31357 959.999 1.55019C982.858 -0.212271 1005.71 -0.800374 1028.57 1.55019C1051.43 3.90167 1074.29 9.1909 1097.14 11.2474C1120 13.3048 1142.86 12.1286 1165.72 10.0721C1188.57 8.01562 1211.43 5.07695 1234.29 4.1948C1257.14 3.31357 1280 4.48885 1302.86 11.2474C1325.71 18.006 1348.57 30.3478 1371.43 31.5231C1394.29 32.6984 1417.14 22.7071 1428.57 17.7119L1440 12.7167V152H1428.57C1417.14 152 1394.29 152 1371.43 152C1348.57 152 1325.71 152 1302.86 152C1280 152 1257.14 152 1234.29 152C1211.43 152 1188.57 152 1165.72 152C1142.86 152 1120 152 1097.14 152C1074.29 152 1051.43 152 1028.57 152C1005.71 152 982.858 152 959.999 152C937.143 152 914.287 152 891.428 152C868.572 152 845.716 152 822.857 152C800.001 152 777.142 152 754.286 152C731.429 152 708.571 152 685.714 152C662.858 152 639.999 152 617.143 152C594.284 152 571.428 152 548.572 152C525.713 152 502.857 152 480.001 152C457.142 152 434.286 152 411.43 152C388.571 152 365.715 152 342.856 152C320 152 297.144 152 274.285 152C251.429 152 228.572 152 205.714 152C182.857 152 160.001 152 137.142 152C114.286 152 91.4274 152 68.5712 152C45.715 152 22.8562 152 11.4294 152H0V37.3995Z" fill="#FA3737"/>
<path d="M0 28.5844L11.4294 31.8172C22.8562 35.0489 45.715 41.5135 68.5712 44.7462C91.4274 47.978 114.286 47.978 137.142 50.9166C160.001 53.8553 182.857 59.7317 205.714 57.6752C228.572 55.6187 251.429 45.6274 274.285 41.8075C297.144 37.9876 320 40.3382 342.856 38.2817C365.715 36.2242 388.571 29.7597 411.43 29.1725C434.286 28.5844 457.142 33.8737 480.001 38.5748C502.857 43.2768 525.713 47.3908 548.572 44.4521C571.428 41.5135 594.284 31.5231 617.143 33.2856C639.999 35.0489 662.858 48.5661 685.714 54.1493C708.571 59.7317 731.429 57.3811 754.286 55.9118C777.142 54.4425 800.001 53.8553 822.857 53.2672C845.716 52.68 868.572 52.0919 891.428 48.272C914.287 44.4521 937.143 37.3995 959.999 36.2242C982.858 35.0489 1005.71 39.751 1028.57 43.864C1051.43 47.978 1074.29 51.5047 1097.14 54.7365C1120 57.9692 1142.86 60.9079 1165.72 56.2058C1188.57 51.5047 1211.43 39.1629 1234.29 32.4043C1257.14 25.6458 1280 24.4705 1302.86 28.2904C1325.71 32.1103 1348.57 40.9263 1371.43 41.5135C1394.29 42.1016 1417.14 34.4618 1428.57 30.6409L1440 26.8211V152H1428.57C1417.14 152 1394.29 152 1371.43 152C1348.57 152 1325.71 152 1302.86 152C1280 152 1257.14 152 1234.29 152C1211.43 152 1188.57 152 1165.72 152C1142.86 152 1120 152 1097.14 152C1074.29 152 1051.43 152 1028.57 152C1005.71 152 982.858 152 959.999 152C937.143 152 914.287 152 891.428 152C868.572 152 845.716 152 822.857 152C800.001 152 777.142 152 754.286 152C731.429 152 708.571 152 685.714 152C662.858 152 639.999 152 617.143 152C594.284 152 571.428 152 548.572 152C525.713 152 502.857 152 480.001 152C457.142 152 434.286 152 411.43 152C388.571 152 365.715 152 342.856 152C320 152 297.144 152 274.285 152C251.429 152 228.572 152 205.714 152C182.857 152 160.001 152 137.142 152C114.286 152 91.4274 152 68.5712 152C45.715 152 22.8562 152 11.4294 152H0V28.5844Z" fill="#D9D9D9"/>
<path d="M0 47.9779L11.4294 47.0967C22.8562 46.2154 45.715 44.4521 68.5712 45.3333C91.4274 46.2155 114.286 49.7413 137.142 55.3246C160.001 60.9078 182.857 68.5476 205.714 68.5476C228.572 68.5476 251.429 60.9078 274.285 55.0305C297.144 49.1532 320 45.0402 342.856 42.6887C365.715 40.3381 388.571 39.7509 411.43 42.1015C434.286 44.4521 457.142 49.7413 480.001 52.68C502.857 55.6186 525.713 56.2058 548.572 55.9117C571.428 55.6186 594.284 54.4424 617.143 58.2632C639.999 62.0831 662.858 70.8982 685.714 68.2536C708.571 65.609 731.429 51.5047 754.286 51.7978C777.142 52.0919 800.001 66.7843 822.857 69.4289C845.716 72.0735 868.572 62.6703 891.428 55.6186C914.287 48.566 937.143 43.864 959.999 47.9779C982.858 52.0918 1005.71 65.0209 1028.57 67.0783C1051.43 69.1348 1074.29 60.3197 1097.14 59.7316C1120 59.1445 1142.86 66.7843 1165.72 69.4289C1188.57 72.0735 1211.43 69.7229 1234.29 67.3724C1257.14 65.0209 1280 62.6703 1302.86 61.201C1325.71 59.7316 1348.57 59.1445 1371.43 59.4385C1394.29 59.7316 1417.14 60.9078 1428.57 61.495L1440 62.0831V152H1428.57C1417.14 152 1394.29 152 1371.43 152C1348.57 152 1325.71 152 1302.86 152C1280 152 1257.14 152 1234.29 152C1211.43 152 1188.57 152 1165.72 152C1142.86 152 1120 152 1097.14 152C1074.29 152 1051.43 152 1028.57 152C1005.71 152 982.858 152 959.999 152C937.143 152 914.287 152 891.428 152C868.572 152 845.716 152 822.857 152C800.001 152 777.142 152 754.286 152C731.429 152 708.571 152 685.714 152C662.858 152 639.999 152 617.143 152C594.284 152 571.428 152 548.572 152C525.713 152 502.857 152 480.001 152C457.142 152 434.286 152 411.43 152C388.571 152 365.715 152 342.856 152C320 152 297.144 152 274.285 152C251.429 152 228.572 152 205.714 152C182.857 152 160.001 152 137.142 152C114.286 152 91.4274 152 68.5712 152C45.715 152 22.8562 152 11.4294 152H0V47.9779Z" fill="#FA3737"/>
<path d="M0 72.6616L11.4294 76.7755C22.8562 80.8885 45.715 89.1164 68.5712 93.2304C91.4274 97.3443 114.286 97.3443 137.142 97.6384C160.001 97.9324 182.857 98.5196 205.714 95.875C228.572 93.2304 251.429 87.354 274.285 85.0025C297.144 82.6519 320 83.8272 342.856 85.5906C365.715 87.354 388.571 89.7045 411.43 87.0599C434.286 84.4153 457.142 76.7755 480.001 73.2488C502.857 69.7229 525.713 70.3101 548.572 74.1309C571.428 77.9508 594.284 85.0025 617.143 85.2965C639.999 85.5906 662.858 79.1261 685.714 75.3062C708.571 71.4863 731.429 70.3101 754.286 71.7794C777.142 73.2488 800.001 77.3627 822.857 76.4815C845.716 75.5993 868.572 69.7229 891.428 71.4863C914.287 73.2488 937.143 82.6519 959.999 83.5332C982.858 84.4153 1005.71 76.7755 1028.57 77.9508C1051.43 79.1261 1074.29 89.1164 1097.14 91.1739C1120 93.2304 1142.86 87.354 1165.72 82.0648C1188.57 76.7755 1211.43 72.0735 1234.29 75.3062C1257.14 78.538 1280 89.7045 1302.86 94.1116C1325.71 98.5196 1348.57 96.169 1371.43 89.1164C1394.29 82.0648 1417.14 70.3101 1428.57 64.4337L1440 58.5564V152H1428.57C1417.14 152 1394.29 152 1371.43 152C1348.57 152 1325.71 152 1302.86 152C1280 152 1257.14 152 1234.29 152C1211.43 152 1188.57 152 1165.72 152C1142.86 152 1120 152 1097.14 152C1074.29 152 1051.43 152 1028.57 152C1005.71 152 982.858 152 959.999 152C937.143 152 914.287 152 891.428 152C868.572 152 845.716 152 822.857 152C800.001 152 777.142 152 754.286 152C731.429 152 708.571 152 685.714 152C662.858 152 639.999 152 617.143 152C594.284 152 571.428 152 548.572 152C525.713 152 502.857 152 480.001 152C457.142 152 434.286 152 411.43 152C388.571 152 365.715 152 342.856 152C320 152 297.144 152 274.285 152C251.429 152 228.572 152 205.714 152C182.857 152 160.001 152 137.142 152C114.286 152 91.4274 152 68.5712 152C45.715 152 22.8562 152 11.4294 152H0V72.6616Z" fill="#D9D9D9"/>
<path d="M0 81.4767L11.4294 82.946C22.8562 84.4153 45.715 87.354 68.5712 92.9364C91.4274 98.5196 114.286 106.748 137.142 111.156C160.001 115.563 182.857 116.151 205.714 112.918C228.572 109.686 251.429 102.634 274.285 96.7563C297.144 90.8799 320 86.1778 342.856 87.9412C365.715 89.7046 388.571 97.9325 411.43 97.9325C434.286 97.9325 457.142 89.7046 480.001 89.7046C502.857 89.7046 525.713 97.9325 548.572 97.3444C571.428 96.7563 594.284 87.354 617.143 84.7094C639.999 82.0648 662.858 86.1778 685.714 88.2352C708.571 90.2918 731.429 90.2918 754.286 88.2352C777.142 86.1778 800.001 82.0648 822.857 81.1826C845.716 80.3014 868.572 82.652 891.428 85.5906C914.287 88.5293 937.143 92.0551 959.999 94.4057C982.858 96.7563 1005.71 97.9325 1028.57 101.752C1051.43 105.572 1074.29 112.037 1097.14 109.686C1120 107.335 1142.86 96.1691 1165.72 94.1116C1188.57 92.0551 1211.43 99.1077 1234.29 99.989C1257.14 100.87 1280 95.581 1302.86 97.3444C1325.71 99.1077 1348.57 107.923 1371.43 111.156C1394.29 114.387 1417.14 112.037 1428.57 110.861L1440 109.686V152H1428.57C1417.14 152 1394.29 152 1371.43 152C1348.57 152 1325.71 152 1302.86 152C1280 152 1257.14 152 1234.29 152C1211.43 152 1188.57 152 1165.72 152C1142.86 152 1120 152 1097.14 152C1074.29 152 1051.43 152 1028.57 152C1005.71 152 982.858 152 959.999 152C937.143 152 914.287 152 891.428 152C868.572 152 845.716 152 822.857 152C800.001 152 777.142 152 754.286 152C731.429 152 708.571 152 685.714 152C662.858 152 639.999 152 617.143 152C594.284 152 571.428 152 548.572 152C525.713 152 502.857 152 480.001 152C457.142 152 434.286 152 411.43 152C388.571 152 365.715 152 342.856 152C320 152 297.144 152 274.285 152C251.429 152 228.572 152 205.714 152C182.857 152 160.001 152 137.142 152C114.286 152 91.4274 152 68.5712 152C45.715 152 22.8562 152 11.4294 152H0V81.4767Z" fill="#FA3737"/>
<path d="M1440 209.601L1428.57 209.012C1417.14 208.425 1394.29 207.249 1371.43 206.368C1348.57 205.487 1325.71 204.898 1302.86 207.249C1280 209.601 1257.14 214.89 1234.29 217.534C1211.43 220.179 1188.57 220.179 1165.72 220.472C1142.86 220.766 1120 221.354 1097.14 219.004C1074.29 216.652 1051.43 211.363 1028.57 207.837C1005.71 204.311 982.858 202.548 959.999 207.543C937.143 212.538 914.287 224.293 891.428 228.994C868.572 233.695 845.716 231.345 822.857 226.643C800.001 221.941 777.142 214.89 754.286 214.596C731.429 214.302 708.571 220.766 685.714 222.824C662.858 224.88 639.999 222.53 617.143 224.293C594.284 226.055 571.428 231.933 548.572 236.34C525.713 240.748 502.857 243.686 480.001 245.45C457.142 247.212 434.286 247.8 411.43 245.45C388.571 243.098 365.715 237.809 342.856 235.753C320 233.695 297.143 234.871 274.285 236.928C251.429 238.984 228.572 241.923 205.714 242.805C182.857 243.686 160.001 242.511 137.142 235.753C114.286 228.994 91.4274 216.652 68.5711 215.477C45.7149 214.302 22.8562 224.293 11.4293 229.288L-9.53674e-07 234.283V95H11.4293C22.8562 95 45.7149 95 68.5711 95C91.4274 95 114.286 95 137.142 95C160.001 95 182.857 95 205.714 95C228.572 95 251.429 95 274.285 95C297.143 95 320 95 342.856 95C365.715 95 388.571 95 411.43 95C434.286 95 457.142 95 480.001 95C502.857 95 525.713 95 548.572 95C571.428 95 594.284 95 617.143 95C639.999 95 662.858 95 685.714 95C708.571 95 731.429 95 754.286 95C777.142 95 800.001 95 822.857 95C845.716 95 868.572 95 891.428 95C914.287 95 937.143 95 959.999 95C982.858 95 1005.71 95 1028.57 95C1051.43 95 1074.29 95 1097.14 95C1120 95 1142.86 95 1165.72 95C1188.57 95 1211.43 95 1234.29 95C1257.14 95 1280 95 1302.86 95C1325.71 95 1348.57 95 1371.43 95C1394.29 95 1417.14 95 1428.57 95H1440V209.601Z" fill="#FA3737"/>
<path d="M1440 219.207L1428.57 216.844C1417.14 214.482 1394.29 209.757 1371.43 207.394C1348.57 205.032 1325.71 205.032 1302.86 202.884C1280 200.736 1257.14 196.441 1234.29 197.944C1211.43 199.447 1188.57 206.75 1165.72 209.542C1142.86 212.334 1120 210.616 1097.14 212.119C1074.29 213.623 1051.43 218.348 1028.57 218.777C1005.71 219.207 982.858 215.341 959.999 211.905C937.143 208.468 914.287 205.461 891.428 207.609C868.572 209.757 845.716 217.059 822.857 215.771C800.001 214.482 777.142 204.602 754.286 200.521C731.429 196.441 708.571 198.159 685.714 199.233C662.858 200.307 639.999 200.736 617.143 201.166C594.284 201.595 571.428 202.025 548.572 204.817C525.713 207.609 502.857 212.764 480.001 213.623C457.142 214.482 434.286 211.045 411.43 208.039C388.571 205.032 365.715 202.454 342.856 200.092C320 197.729 297.143 195.581 274.285 199.018C251.429 202.454 228.572 211.475 205.714 216.415C182.857 221.355 160.001 222.214 137.142 219.422C114.286 216.63 91.4274 210.186 68.5711 209.757C45.7149 209.327 22.8562 214.911 11.4293 217.704L-9.53674e-07 220.496V129H11.4293C22.8562 129 45.7149 129 68.5711 129C91.4274 129 114.286 129 137.142 129C160.001 129 182.857 129 205.714 129C228.572 129 251.429 129 274.285 129C297.143 129 320 129 342.856 129C365.715 129 388.571 129 411.43 129C434.286 129 457.142 129 480.001 129C502.857 129 525.713 129 548.572 129C571.428 129 594.284 129 617.143 129C639.999 129 662.858 129 685.714 129C708.571 129 731.429 129 754.286 129C777.142 129 800.001 129 822.857 129C845.716 129 868.572 129 891.428 129C914.287 129 937.143 129 959.999 129C982.858 129 1005.71 129 1028.57 129C1051.43 129 1074.29 129 1097.14 129C1120 129 1142.86 129 1165.72 129C1188.57 129 1211.43 129 1234.29 129C1257.14 129 1280 129 1302.86 129C1325.71 129 1348.57 129 1371.43 129C1394.29 129 1417.14 129 1428.57 129H1440V219.207Z" fill="#D9D9D9"/>
<path d="M1440 199.845L1428.57 200.58C1417.14 201.316 1394.29 202.788 1371.43 202.052C1348.57 201.316 1325.71 198.372 1302.86 193.711C1280 189.05 1257.14 182.672 1234.29 182.672C1211.43 182.672 1188.57 189.05 1165.72 193.957C1142.86 198.863 1120 202.297 1097.14 204.26C1074.29 206.223 1051.43 206.713 1028.57 204.751C1005.71 202.788 982.858 198.372 959.999 195.919C937.143 193.466 914.287 192.975 891.428 193.221C868.572 193.466 845.716 194.448 822.857 191.258C800.001 188.069 777.142 180.709 754.286 182.917C731.429 185.125 708.571 196.9 685.714 196.655C662.858 196.41 639.999 184.144 617.143 181.936C594.284 179.728 571.428 187.578 548.572 193.466C525.713 199.354 502.857 203.279 480.001 199.845C457.142 196.41 434.286 185.616 411.43 183.898C388.571 182.181 365.715 189.541 342.856 190.032C320 190.522 297.143 184.144 274.285 181.936C251.429 179.728 228.572 181.69 205.714 183.653C182.857 185.616 160.001 187.578 137.142 188.805C114.286 190.032 91.4274 190.522 68.5711 190.276C45.7149 190.032 22.8562 189.05 11.4293 188.56L-9.53674e-07 188.069V113H11.4293C22.8562 113 45.7149 113 68.5711 113C91.4274 113 114.286 113 137.142 113C160.001 113 182.857 113 205.714 113C228.572 113 251.429 113 274.285 113C297.143 113 320 113 342.856 113C365.715 113 388.571 113 411.43 113C434.286 113 457.142 113 480.001 113C502.857 113 525.713 113 548.572 113C571.428 113 594.284 113 617.143 113C639.999 113 662.858 113 685.714 113C708.571 113 731.429 113 754.286 113C777.142 113 800.001 113 822.857 113C845.716 113 868.572 113 891.428 113C914.287 113 937.143 113 959.999 113C982.858 113 1005.71 113 1028.57 113C1051.43 113 1074.29 113 1097.14 113C1120 113 1142.86 113 1165.72 113C1188.57 113 1211.43 113 1234.29 113C1257.14 113 1280 113 1302.86 113C1325.71 113 1348.57 113 1371.43 113C1394.29 113 1417.14 113 1428.57 113H1440V199.845Z" fill="#FA3737"/>
<path d="M1440 179.094L1428.57 176.496C1417.14 173.9 1394.29 168.704 1371.43 166.107C1348.57 163.509 1325.71 163.509 1302.86 163.324C1280 163.138 1257.14 162.767 1234.29 164.437C1211.43 166.107 1188.57 169.817 1165.72 171.302C1142.86 172.786 1120 172.044 1097.14 170.931C1074.29 169.817 1051.43 168.333 1028.57 170.003C1005.71 171.673 982.858 176.496 959.999 178.723C937.143 180.949 914.287 180.579 891.428 178.166C868.572 175.754 845.716 171.302 822.857 171.116C800.001 170.931 777.142 175.012 754.286 177.424C731.429 179.836 708.571 180.579 685.714 179.651C662.858 178.723 639.999 176.126 617.143 176.682C594.284 177.239 571.428 180.949 548.572 179.836C525.713 178.723 502.857 172.786 480.001 172.23C457.142 171.673 434.286 176.496 411.43 175.754C388.571 175.012 365.715 168.704 342.856 167.405C320 166.107 297.143 169.817 274.285 173.157C251.429 176.496 228.572 179.465 205.714 177.424C182.857 175.384 160.001 168.333 137.142 165.551C114.286 162.767 91.4274 164.251 68.5711 168.704C45.7149 173.157 22.8562 180.579 11.4293 184.289L-9.53674e-07 188V129H11.4293C22.8562 129 45.7149 129 68.5711 129C91.4274 129 114.286 129 137.142 129C160.001 129 182.857 129 205.714 129C228.572 129 251.429 129 274.285 129C297.143 129 320 129 342.856 129C365.715 129 388.571 129 411.43 129C434.286 129 457.142 129 480.001 129C502.857 129 525.713 129 548.572 129C571.428 129 594.284 129 617.143 129C639.999 129 662.858 129 685.714 129C708.571 129 731.429 129 754.286 129C777.142 129 800.001 129 822.857 129C845.716 129 868.572 129 891.428 129C914.287 129 937.143 129 959.999 129C982.858 129 1005.71 129 1028.57 129C1051.43 129 1074.29 129 1097.14 129C1120 129 1142.86 129 1165.72 129C1188.57 129 1211.43 129 1234.29 129C1257.14 129 1280 129 1302.86 129C1325.71 129 1348.57 129 1371.43 129C1394.29 129 1417.14 129 1428.57 129H1440V179.094Z" fill="#D9D9D9"/>
<path d="M1440 165.641L1428.57 164.544C1417.14 163.447 1394.29 161.254 1371.43 157.087C1348.57 152.919 1325.71 146.778 1302.86 143.487C1280 140.198 1257.14 139.759 1234.29 142.172C1211.43 144.584 1188.57 149.848 1165.72 154.235C1142.86 158.622 1120 162.131 1097.14 160.815C1074.29 159.499 1051.43 153.357 1028.57 153.357C1005.71 153.357 982.858 159.499 959.999 159.499C937.143 159.499 914.287 153.357 891.428 153.796C868.572 154.235 845.716 161.254 822.857 163.228C800.001 165.202 777.142 162.131 754.286 160.596C731.429 159.061 708.571 159.061 685.714 160.596C662.858 162.131 639.999 165.202 617.143 165.86C594.284 166.518 571.428 164.763 548.572 162.57C525.713 160.376 502.857 157.744 480.001 155.99C457.142 154.235 434.286 153.357 411.43 150.506C388.571 147.655 365.715 142.83 342.856 144.584C320 146.339 297.143 154.674 274.285 156.209C251.429 157.744 228.572 152.48 205.714 151.822C182.857 151.165 160.001 155.113 137.142 153.796C114.286 152.48 91.4274 145.9 68.5711 143.487C45.7149 141.075 22.8562 142.83 11.4293 143.707L-9.53674e-07 144.584V113H11.4293C22.8562 113 45.7149 113 68.5711 113C91.4274 113 114.286 113 137.142 113C160.001 113 182.857 113 205.714 113C228.572 113 251.429 113 274.285 113C297.143 113 320 113 342.856 113C365.715 113 388.571 113 411.43 113C434.286 113 457.142 113 480.001 113C502.857 113 525.713 113 548.572 113C571.428 113 594.284 113 617.143 113C639.999 113 662.858 113 685.714 113C708.571 113 731.429 113 754.286 113C777.142 113 800.001 113 822.857 113C845.716 113 868.572 113 891.428 113C914.287 113 937.143 113 959.999 113C982.858 113 1005.71 113 1028.57 113C1051.43 113 1074.29 113 1097.14 113C1120 113 1142.86 113 1165.72 113C1188.57 113 1211.43 113 1234.29 113C1257.14 113 1280 113 1302.86 113C1325.71 113 1348.57 113 1371.43 113C1394.29 113 1417.14 113 1428.57 113H1440V165.641Z" fill="#FA3737"/>
</svg>
